<?xml version="1.0" encoding="UTF-8"?>
<svg width="300px" height="300px" viewBox="0 0 300 300" version="1.1" xmlns="http://www.w3.org/2000/svg" xmlns:xlink="http://www.w3.org/1999/xlink">
    <!-- Generator: Sketch 51.1 (57501) - http://www.bohemiancoding.com/sketch -->
    <title>Group Copy 3</title>
    <desc>Created with Sketch.</desc>
    <defs>
        <linearGradient x1="-2.22044605e-14%" y1="50%" x2="100%" y2="50%" id="linearGradient-1">
            <stop stop-color="#16C5DF" offset="0%"></stop>
            <stop stop-color="#40A5EF" offset="100%"></stop>
        </linearGradient>
    </defs>
    <g id="Page-1" stroke="none" stroke-width="1" fill="none" fill-rule="evenodd">
        <g id="Group-Copy-3">
            <circle id="Oval-Copy-8" fill="#FFFFFF" cx="150" cy="150" r="150"></circle>
            <path d="M123.172043,174.891775 L123.172043,221.666667 C123.172043,224.42809 120.933467,226.666667 118.172043,226.666667 L98.3333333,226.666667 C95.5719096,226.666667 93.3333333,224.42809 93.3333333,221.666667 L93.3333333,169.891775 L93.3333333,150.021645 C93.3333333,147.260221 95.5719096,145.021645 98.3333333,145.021645 L119.70124,145.021645 L167.908113,145.021645 C179.455885,145.021645 188.817204,135.660326 188.817204,124.112554 C188.817204,112.564782 179.455885,103.203463 167.908113,103.203463 L119.70124,103.203463 L98.3333333,103.203463 C95.5719096,103.203463 93.3333333,100.964887 93.3333333,98.2034632 L93.3333333,78.3333333 C93.3333333,75.5719096 95.5719096,73.3333333 98.3333333,73.3333333 L164.067374,73.3333333 L164.057923,73.3676694 C164.68275,73.3448449 165.310462,73.3333333 165.94086,73.3333333 C193.95595,73.3333333 216.666667,96.0679649 216.666667,124.112554 C216.666667,152.086975 194.069453,174.777976 166.151044,174.891348 L123.172043,174.891775 Z" id="Combined-Shape-Copy-18" fill="url(#linearGradient-1)"></path>
        </g>
    </g>
</svg>